# xmcd CD database file
#
# Track frame offsets:
#	150
#	13748
#	28999
#	46328
#	59343
#	73777
#	90154
#	104284
#	122395
#	138296
#	153451
#	182698
#
# Disc length: 2762 seconds
#
# Revision: 17
# Processed by: cddbd v1.5.2PL0 Copyright (c) Steve Scherf et al.
# Submitted via: CDex 1.51
#
DISCID=990ac80c
DTITLE=Simple Plan - Still Not Getting Any...
DYEAR=2004
DGENRE=Rock
TTITLE0=Shut Up!
TTITLE1=Welcome To My Life
TTITLE2=Perfect World
TTITLE3=Thank You
TTITLE4=Me Against The World
TTITLE5=Crazy
TTITLE6=Jump
TTITLE7=Everytime
TTITLE8=Promise
TTITLE9=One
TTITLE10=Untitled
TTITLE11=Data Track
EXTD=YEAR: 2004
EXTT0=
EXTT1=
EXTT2=
EXTT3=
EXTT4=
EXTT5=
EXTT6=
EXTT7=
EXTT8=
EXTT9=
EXTT10=
EXTT11=
PLAYORDER=
